<svg id="Layer_1" data-name="Layer 1" xmlns="http://www.w3.org/2000/svg" viewBox="0 0 110.09 105.25"><defs><style>.cls-1{fill:#231f20;}.cls-2{fill:#fff;}.cls-3{fill:#b31f24;}</style></defs><path class="cls-1" d="M50.22,4.59H48.15v.07c.69,0,1.38,0,2.07,0H51.3C51,4.59,50.59,4.59,50.22,4.59Z"/><path class="cls-1" d="M57.11,0V.05a6.05,6.05,0,0,0-1,0Z"/><path class="cls-1" d="M40.47,52.62c0,7.73,6.52,13.93,14.62,13.93V38.7C47,38.7,40.47,44.94,40.47,52.62ZM55,57.23A4.62,4.62,0,1,1,55,48Z"/><path class="cls-1" d="M36.82,52.62c0,9.61,8.17,17.44,18.25,17.44V93.31C31.75,93.11,12.9,75,12.9,52.62S31.75,12.11,55.07,11.91V35.18C45,35.18,36.82,43,36.82,52.62Z"/><rect class="cls-2" x="55.07" y="9.17" width="0.4" height="0.05"/><polygon class="cls-2" points="55.47 9.17 55.07 9.17 55.07 9.22 55.47 9.22 55.47 9.17 55.47 9.17"/><path class="cls-3" d="M50.2,52.62A4.75,4.75,0,0,0,55,57.23h.05v9.32c-8.1,0-14.62-6.2-14.62-13.93S47,38.7,55.09,38.7V48H55A4.74,4.74,0,0,0,50.2,52.62Z"/><path class="cls-1" d="M110.09,52.58c0,1,0,1.86,0,2.74a45.82,45.82,0,0,1-1,7.69c-.14.74-.32,1.49-.51,2.23a2.81,2.81,0,0,0-.09.33,16.78,16.78,0,0,1-.51,1.72c-.14.56-.38,1.21-.56,1.82-.19.46-.38,1-.56,1.53-.28.7-.56,1.35-.79,2-.38.7-.7,1.49-1.12,2.19-.23.56-.56,1.12-.84,1.68l-.61,1.16a6.4,6.4,0,0,1-.65,1,2.93,2.93,0,0,1-.42.74c-.37.65-.79,1.26-1.21,1.86s-.7,1-1.11,1.59c-.14.18-.38.46-.56.74s-.56.7-.89,1.07a8.68,8.68,0,0,1-.79,1c-.19.19-.37.42-.56.65a17.34,17.34,0,0,1-1.35,1.44,1.63,1.63,0,0,1-.42.42,11.85,11.85,0,0,1-1.16,1.21c-.24.19-.51.47-.75.7a13.29,13.29,0,0,1-1.49,1.35c-.65.56-1.25,1-1.81,1.54a3.59,3.59,0,0,1-.61.47c-.28.23-.65.51-1.07.79s-.7.51-1,.74-.7.47-1.08.75-.69.46-1.11.7a16,16,0,0,1-1.45.88,3.14,3.14,0,0,1-.6.37c-.38.19-.84.42-1.31.7a8.23,8.23,0,0,1-1.21.65l-.37.38H80.1l-1.49.7a13.22,13.22,0,0,1-1.68.69c-.23.14-.42.19-.7.33s-1,.37-1.58.56a4.66,4.66,0,0,1-1,.37,12.68,12.68,0,0,1-1.44.42,19.21,19.21,0,0,1-2.14.7c-.52.09-1.12.28-1.73.42s-1.44.32-2.23.46c-.56.14-1.21.28-1.82.38-2.37.32-4.8.6-7.22.69H53a57.38,57.38,0,0,1-16.67-3.12,56.17,56.17,0,0,1-16.16-8.84A52.52,52.52,0,0,1,8.06,80,50.33,50.33,0,0,1,1.12,63.29,51,51,0,0,1,0,52.58C0,24.22,23.56,1.07,53,.05c.7,0,1.4,0,2.1,0h1.07a5.5,5.5,0,0,1,.93.05h.19A55.82,55.82,0,0,1,92.62,14.16c.47.37.94.83,1.4,1.25l1.45,1.4-6.8,6.52,0,0-2.79-2.6A46.22,46.22,0,0,0,57.09,9.22h0c-.56,0-1-.05-1.59-.05h-.37v.05a37.23,37.23,0,0,0-5.26.33s-2.14.23-2.33.23C25.75,13.27,9.59,31.29,9.59,52.58c0,21.56,16.44,39.72,38.52,43l1.72.14a38.81,38.81,0,0,0,5.26.32h2c22.45-.93,40.84-17.51,43.17-38.79H55.09V48h55v2C110.09,50.81,110.09,51.69,110.09,52.58Z"/><path class="cls-1" d="M55.07,105.25H53v0C53.69,105.25,54.35,105.25,55.07,105.25Z"/><path class="cls-1" d="M57,9.22h-2V9.17h.4C56,9.17,56.5,9.2,57,9.22Z"/><path class="cls-1" d="M55.07,105.25H53v0C53.69,105.25,54.35,105.25,55.07,105.25Z"/></svg>